<svg width="323" height="336" viewBox="0 0 323 336" fill="none" xmlns="http://www.w3.org/2000/svg">
<path fill-rule="evenodd" clip-rule="evenodd" d="M55.5885 58.8327C66.0811 67.316 69.8763 66.6463 89.522 65.3068L274.594 54.1445C278.612 54.1445 275.263 50.126 273.924 49.6795L243.116 27.5781C237.311 23.1132 229.275 17.7552 214.317 19.0947L35.273 32.2663C28.7989 32.936 27.4594 36.2847 30.1383 38.7404L55.5885 58.8327ZM66.7508 101.919V296.591C66.7508 307.083 71.8855 310.878 83.7176 310.209L287.095 298.377C298.928 297.707 300.267 290.563 300.267 282.08V88.7477C300.267 80.2643 296.918 75.5762 289.774 76.2459L77.2434 88.7477C69.4298 89.4175 66.7508 93.4359 66.7508 101.919ZM20.3155 14.4065L206.727 0.788462C229.498 -1.22076 235.525 0.118725 249.813 10.6113L309.197 52.3585C319.02 59.5024 322.368 61.5116 322.368 69.3253V298.6C322.368 312.888 317.234 321.371 298.928 322.71L82.6014 335.882C68.7601 336.552 62.2859 334.543 55.142 325.389L11.1623 268.461C3.3487 257.969 0 250.155 0 241.002V37.1777C0 25.3456 5.35792 15.746 20.3155 14.4065Z" fill="#1361F5"/>
<path d="M247.581 127.716C247.581 122.606 243.301 118.538 238.198 118.798L135.504 124.021C130.755 124.262 127.028 128.183 127.028 132.939V281.291L183.759 250.137L247.581 274.66V127.716Z" fill="#1361F5"/>
</svg>
